{
  "accessors": [
    {
      "bufferView": 2,
      "componentType": 5126,
      "count": 65532,
      "max": [
        -2.098599910736084,
        12.791899681091309,
        13.318400382995605
      ],
      "min": [
        -11.71560001373291,
        -0.07530000060796738,
        -13.42020034790039
      ],
      "type": "VEC3"
    },
    {
      "bufferView": 2,
      "byteOffset": 786384,
      "componentType": 5126,
      "count": 65532,
      "max": [
        0.9999983310699463,
        0.9999984502792358,
        0.999985933303833
      ],
      "min": [
        -0.9999984502792358,
        -1.0,
        -0.9999903440475464
      ],
      "type": "VEC3"
    },
    {
      "bufferView": 1,
      "componentType": 5126,
      "count": 65532,
      "max": [
        0.9991999864578247,
        0.9991000294685364
      ],
      "min": [
        0.00430000014603138,
        0.000699999975040555
      ],
      "type": "VEC2"
    },
    {
      "bufferView": 0,
      "componentType": 5125,
      "count": 363606,
      "type": "SCALAR"
    },
    {
      "bufferView": 2,
      "byteOffset": 1572768,
      "componentType": 5126,
      "count": 7088,
      "max": [
        -2.0608999729156494,
        10.838000297546387,
        13.055500030517578
      ],
      "min": [
        -11.029899597167969,
        1.9909000396728516,
        -13.14780044555664
      ],
      "type": "VEC3"
    },
    {
      "bufferView": 2,
      "byteOffset": 1657824,
      "componentType": 5126,
      "count": 7088,
      "max": [
        0.9999762773513794,
        0.9999899864196777,
        0.9989356994628906
      ],
      "min": [
        -0.9999711513519287,
        -0.9997332692146301,
        -0.9994868636131287
      ],
      "type": "VEC3"
    },
    {
      "bufferView": 1,
      "byteOffset": 524256,
      "componentType": 5126,
      "count": 7088,
      "max": [
        0.5863000154495239,
        0.9599999785423279
      ],
      "min": [
        0.030300000682473183,
        0.016100000590085983
      ],
      "type": "VEC2"
    },
    {
      "bufferView": 0,
      "byteOffset": 1454424,
      "componentType": 5125,
      "count": 38070,
      "type": "SCALAR"
    }
  ],
  "asset": {
    "extras": {
      "author": "MamaTeeku (https://sketchfab.com/MamaTeeku)",
      "license": "CC-BY-4.0 (http://creativecommons.org/licenses/by/4.0/)",
      "source": "https://sketchfab.com/3d-models/nike-shoe-d796cf8784fc46169e3ac70375e0e8a8",
      "title": "Nike Shoe"
    },
    "generator": "Sketchfab-12.67.0",
    "version": "2.0"
  },
  "bufferViews": [
    {
      "buffer": 0,
      "byteLength": 1606704,
      "name": "floatBufferViews",
      "target": 34963
    },
    {
      "buffer": 0,
      "byteLength": 580960,
      "byteOffset": 1606704,
      "byteStride": 8,
      "name": "floatBufferViews",
      "target": 34962
    },
    {
      "buffer": 0,
      "byteLength": 1742880,
      "byteOffset": 2187664,
      "byteStride": 12,
      "name": "floatBufferViews",
      "target": 34962
    }
  ],
  "buffers": [
    {
      "byteLength": 3930544,
      "uri": "scene.bin"
    }
  ],
  "materials": [
    {
      "doubleSided": true,
      "name": "aiStandardSurface1",
      "pbrMetallicRoughness": {
        "metallicFactor": 0.0,
        "roughnessFactor": 0.6
      }
    }
  ],
  "meshes": [
    {
      "name": "RT_AirMax90_aiStandardSurface1_0",
      "primitives": [
        {
          "attributes": {
            "NORMAL": 1,
            "POSITION": 0,
            "TEXCOORD_0": 2
          },
          "indices": 3,
          "material": 0,
          "mode": 4
        }
      ]
    },
    {
      "name": "RT_AirMax90_aiStandardSurface1_0",
      "primitives": [
        {
          "attributes": {
            "NORMAL": 5,
            "POSITION": 4,
            "TEXCOORD_0": 6
          },
          "indices": 7,
          "material": 0,
          "mode": 4
        }
      ]
    }
  ],
  "nodes": [
    {
      "children": [
        1
      ],
      "matrix": [
        1.0,
        0.0,
        0.0,
        0.0,
        0.0,
        2.220446049250313e-16,
        -1.0,
        0.0,
        0.0,
        1.0,
        2.220446049250313e-16,
        0.0,
        0.0,
        0.0,
        0.0,
        1.0
      ],
      "name": "Sketchfab_model"
    },
    {
      "children": [
        2
      ],
      "matrix": [
        1.0,
        0.0,
        0.0,
        0.0,
        0.0,
        0.0,
        1.0,
        0.0,
        0.0,
        -1.0,
        0.0,
        0.0,
        0.0,
        0.0,
        0.0,
        1.0
      ],
      "name": "b74e257dd37f463ca172d912ef4d23cb.fbx"
    },
    {
      "children": [
        3
      ],
      "name": "RootNode"
    },
    {
      "children": [
        4,
        5
      ],
      "matrix": [
        0.2882518172264099,
        0.0,
        0.0,
        0.0,
        0.0,
        0.2882518172264099,
        0.0,
        0.0,
        0.0,
        0.0,
        0.2882518172264099,
        0.0,
        0.0,
        0.0,
        0.0,
        1.0
      ],
      "name": "RT_AirMax90"
    },
    {
      "mesh": 0,
      "name": "RT_AirMax90_aiStandardSurface1_0"
    },
    {
      "mesh": 1,
      "name": "RT_AirMax90_aiStandardSurface1_0"
    }
  ],
  "scene": 0,
  "scenes": [
    {
      "name": "Sketchfab_Scene",
      "nodes": [
        0
      ]
    }
  ]
}
